<?xml version="1.0" standalone="no"?>
<!DOCTYPE svg PUBLIC "-//W3C//DTD SVG 20010904//EN"
 "http://www.w3.org/TR/2001/REC-SVG-20010904/DTD/svg10.dtd">
<svg version="1.0" xmlns="http://www.w3.org/2000/svg"
 width="700.000000pt" height="700.000000pt" viewBox="0 0 700.000000 700.000000"
 preserveAspectRatio="xMidYMid meet">
<metadata>
Created by potrace 1.11, written by Peter Selinger 2001-2013
</metadata>
<g transform="translate(0.000000,700.000000) scale(0.100000,-0.100000)"
fill="#000000" stroke="none">
<path d="M3312 6719 c-576 -32 -1142 -223 -1617 -547 -737 -503 -1228 -1263
-1374 -2129 -57 -335 -59 -736 -5 -1058 78 -473 250 -906 512 -1290 372 -546
882 -956 1487 -1196 249 -98 509 -164 805 -203 231 -31 616 -23 885 19 1268
198 2309 1146 2624 2390 144 571 129 1169 -45 1742 -187 618 -586 1197 -1099
1596 -621 483 -1384 720 -2173 676z m1949 -1044 c63 -93 94 -270 86 -479 -8
-198 -52 -392 -139 -611 -48 -122 -84 -188 -154 -282 -30 -40 -54 -76 -54 -81
0 -5 7 -16 16 -23 21 -18 182 -226 285 -370 89 -125 140 -218 169 -312 26 -80
44 -235 35 -292 -6 -42 -8 -44 -25 -32 -48 34 -78 87 -85 150 -14 139 -65 280
-143 401 -47 73 -314 426 -322 426 -4 0 -13 -7 -20 -15 -11 -13 -21 -9 -79 32
-36 25 -68 48 -71 51 -3 2 11 17 31 33 117 94 242 350 294 604 55 271 11 554
-99 625 l-39 25 62 55 c71 63 189 140 211 137 8 -1 26 -20 41 -42z m-3218 -81
c39 -20 84 -53 156 -113 l53 -45 -50 -22 c-36 -16 -58 -34 -76 -63 -31 -49
-62 -158 -72 -249 l-6 -67 -74 -31 c-59 -25 -74 -29 -78 -17 -4 8 -6 79 -6
158 0 200 32 354 91 437 24 33 21 32 62 12z m1542 -71 c95 -32 177 -146 182
-252 2 -50 -1 -59 -33 -98 -48 -58 -64 -57 -64 7 0 67 -18 146 -46 202 -27 54
-98 126 -131 134 -13 4 -20 10 -17 15 8 14 56 11 109 -8z m-255 -128 c40 -20
50 -31 55 -57 4 -20 0 -47 -8 -66 l-14 -34 -13 31 c-6 17 -28 45 -47 63 -18
18 -43 45 -54 61 l-20 27 26 0 c14 0 48 -11 75 -25z m675 -55 c3 -6 -1 -7 -9
-4 -18 7 -21 14 -7 14 6 0 13 -4 16 -10z m0 -233 c70 -27 89 -60 61 -107 -9
-16 -16 -39 -16 -52 -1 -22 -2 -21 -32 12 -16 19 -38 53 -48 75 -17 39 -33 95
-27 95 1 0 29 -10 62 -23z m-1939 -334 c18 -82 55 -228 59 -231 2 -2 -12 -27
-31 -54 -19 -28 -34 -55 -35 -62 -2 -30 -119 294 -119 329 0 7 24 19 53 28 69
20 66 21 73 -10z m2004 -45 c87 -20 192 -79 261 -148 161 -158 194 -381 88
-581 -34 -64 -157 -189 -185 -189 -16 0 -15 2 4 23 11 12 33 48 47 79 55 121
25 269 -74 361 -160 150 -416 97 -509 -103 -31 -67 -35 -181 -8 -244 9 -22 14
-41 11 -44 -8 -8 -255 75 -299 100 -44 26 -59 59 -76 165 -37 227 128 474 375
562 112 40 246 47 365 19z m-1400 -83 c102 -27 180 -73 261 -154 54 -55 82
-93 99 -134 l24 -57 30 24 c32 24 98 60 140 76 l24 9 -15 -47 c-10 -29 -16
-87 -16 -154 0 -65 -4 -105 -10 -101 -6 4 -8 -26 -5 -78 3 -71 9 -94 38 -147
47 -89 149 -185 252 -238 126 -65 247 -94 390 -94 l107 0 17 -35 c15 -33 70
-88 109 -111 18 -10 18 -13 -8 -66 -126 -257 -657 -455 -1097 -409 -203 22
-332 73 -397 159 -45 59 -44 86 5 100 104 32 202 161 202 267 0 79 -42 136
-145 198 -44 26 -98 52 -120 58 -100 28 -111 4 113 224 111 109 202 203 202
210 0 27 -67 110 -114 140 -125 80 -277 63 -378 -42 -104 -107 -108 -269 -11
-402 l17 -24 -98 5 -99 4 -55 59 c-174 187 -165 459 21 631 107 100 218 142
372 143 50 1 115 -6 145 -14z m1304 -417 c32 -45 9 -101 -46 -114 -21 -4 -33
0 -52 20 -49 48 -23 116 44 116 29 0 43 -6 54 -22z m-1268 -14 c20 -19 24 -31
19 -52 -18 -78 -125 -66 -125 14 0 23 7 38 22 48 32 23 55 20 84 -10z m2017
-499 c74 -15 131 -49 123 -71 -4 -9 2 -14 15 -14 23 0 61 -18 71 -33 13 -20
-11 -44 -73 -72 -46 -20 -71 -26 -97 -21 -26 4 -8 -9 69 -47 181 -92 298 -186
353 -287 28 -51 37 -121 22 -167 -11 -34 -39 -29 -177 31 -128 55 -169 71
-169 63 0 -3 14 -34 30 -69 17 -36 41 -106 53 -156 l23 -91 38 44 c43 52 72
58 87 19 8 -23 3 -40 -37 -118 -25 -50 -53 -96 -62 -103 -11 -9 -13 -24 -9
-60 5 -50 -7 -282 -18 -326 -7 -26 -7 -25 -88 45 -45 38 -115 92 -156 118
l-74 49 -47 -67 c-68 -97 -171 -189 -305 -273 -264 -167 -425 -335 -541 -569
-104 -209 -148 -452 -114 -631 6 -29 6 -57 2 -61 -5 -5 -31 -11 -58 -14 -65
-7 -105 15 -167 91 -78 95 -104 141 -138 243 -30 90 -32 94 -45 71 -7 -13 -25
-59 -39 -101 l-26 -77 -30 11 c-16 5 -39 23 -52 39 -12 16 -40 51 -61 77 -49
59 -67 99 -110 247 l-34 119 -15 -30 c-25 -49 -44 -60 -66 -40 -11 10 -25 30
-31 46 -7 16 -20 32 -29 35 -43 13 -77 130 -88 298 -6 100 -7 106 -23 92 -9
-8 -22 -15 -28 -15 -14 0 -42 52 -42 79 0 14 -5 18 -19 14 -27 -7 -47 36 -54
112 -3 33 -3 48 1 32 7 -26 9 -23 57 55 59 99 167 210 250 258 l60 35 -71 6
c-39 4 -84 13 -100 21 -16 9 -63 18 -104 21 -137 11 -215 55 -287 161 -19 28
-50 73 -68 99 -45 63 -65 131 -72 238 -7 111 2 163 25 154 95 -40 166 -58 248
-63 l92 -5 5 -51 c3 -28 11 -89 18 -136 11 -80 11 -88 -9 -132 -22 -51 -60
-80 -127 -100 -22 -6 -42 -13 -45 -15 -11 -9 28 -23 66 -23 47 0 110 39 133
83 14 26 31 36 31 18 0 -16 72 -34 131 -34 64 0 154 42 172 80 12 27 8 26 78
13 80 -16 310 -14 424 4 429 66 734 225 820 429 l28 67 52 0 c29 0 67 5 86 11
39 13 85 53 92 79 4 16 -3 18 -73 18 -43 1 -105 8 -138 16 -68 18 -193 64
-205 75 -4 4 14 16 40 26 51 19 87 40 115 65 16 15 183 65 243 73 71 9 205 6
268 -8z m618 -500 c81 -89 104 -191 74 -336 -39 -196 -141 -342 -176 -252 -8
22 -5 40 20 98 40 96 65 223 58 295 -4 31 -27 111 -52 178 -56 150 -57 173 -7
112 20 -25 58 -67 83 -95z"/>
</g>
</svg>
