<svg
    xmlns="http://www.w3.org/2000/svg"
    xmlns:svg="http://www.w3.org/2000/svg"
    xmlns:xlink="http://www.w3.org/1999/xlink"
    viewBox="0 0 24 24"
    preserveAspectRatio="xMidYMid meet"
    version="1.1"
>
  <symbol id="dashboard">
    <path fill="currentColor" d="M13,3V9H21V3M13,21H21V11H13M3,21H11V15H3M3,13H11V3H3V13Z" />
  </symbol>
  <symbol id="add">
    <path fill="currentColor" d="M19,13H13V19H11V13H5V11H11V5H13V11H19V13Z" />
  </symbol>
  <symbol id="align-center">
    <path fill="currentColor" d="M3,3H21V5H3V3M7,7H17V9H7V7M3,11H21V13H3V11M7,15H17V17H7V15M3,19H21V21H3V19Z" />
  </symbol>
  <symbol id="align-justify">
    <path fill="currentColor" d="M3,3H21V5H3V3M3,7H21V9H3V7M3,11H21V13H3V11M3,15H21V17H3V15M3,19H21V21H3V19Z" />
  </symbol>
  <symbol id="align-left">
    <path fill="currentColor" d="M3,3H21V5H3V3M3,7H15V9H3V7M3,11H21V13H3V11M3,15H15V17H3V15M3,19H21V21H3V19Z" />
  </symbol>
  <symbol id="align-right">
    <path fill="currentColor" d="M3,3H21V5H3V3M9,7H21V9H9V7M3,11H21V13H3V11M9,15H21V17H9V15M3,19H21V21H3V19Z" />
  </symbol>
  <symbol id="blockquote">
    <path fill="currentColor" d="M14,17H17L19,13V7H13V13H16M6,17H9L11,13V7H5V13H8L6,17Z" />
  </symbol>
  <symbol id="bold">
    <path fill="currentColor" d="M13.5,15.5H10V12.5H13.5A1.5,1.5 0 0,1 15,14A1.5,1.5 0 0,1 13.5,15.5M10,6.5H13A1.5,1.5 0 0,1 14.5,8A1.5,1.5 0 0,1 13,9.5H10M15.6,10.79C16.57,10.11 17.25,9 17.25,8C17.25,5.74 15.5,4 13.25,4H7V18H14.04C16.14,18 17.75,16.3 17.75,14.21C17.75,12.69 16.89,11.39 15.6,10.79Z" />
  </symbol>
  <symbol id="code-block">
    <path fill="currentColor" d="M14.6,16.6L19.2,12L14.6,7.4L16,6L22,12L16,18L14.6,16.6M9.4,16.6L4.8,12L9.4,7.4L8,6L2,12L8,18L9.4,16.6Z" />
  </symbol>
  <symbol id="delete">
    <path fill="currentColor" d="M19,4H15.5L14.5,3H9.5L8.5,4H5V6H19M6,19A2,2 0 0,0 8,21H16A2,2 0 0,0 18,19V7H6V19Z" />
  </symbol>
  <symbol id="edit">
    <path fill="currentColor" d="M20.71,7.04C21.1,6.65 21.1,6 20.71,5.63L18.37,3.29C18,2.9 17.35,2.9 16.96,3.29L15.12,5.12L18.87,8.87M3,17.25V21H6.75L17.81,9.93L14.06,6.18L3,17.25Z" />
  </symbol>
  <symbol id="h1">
    <path fill="currentColor" d="M3,4H5V10H9V4H11V18H9V12H5V18H3V4M14,18V16H16V6.31L13.5,7.75V5.44L16,4H18V16H20V18H14Z" />
  </symbol>
  <symbol id="h2">
    <path fill="currentColor" d="M3,4H5V10H9V4H11V18H9V12H5V18H3V4M21,18H15A2,2 0 0,1 13,16C13,15.47 13.2,15 13.54,14.64L18.41,9.41C18.78,9.05 19,8.55 19,8A2,2 0 0,0 17,6A2,2 0 0,0 15,8H13A4,4 0 0,1 17,4A4,4 0 0,1 21,8C21,9.1 20.55,10.1 19.83,10.83L15,16H21V18Z" />
  </symbol>
  <symbol id="h3">
    <path fill="currentColor" d="M3,4H5V10H9V4H11V18H9V12H5V18H3V4M15,4H19A2,2 0 0,1 21,6V16A2,2 0 0,1 19,18H15A2,2 0 0,1 13,16V15H15V16H19V12H15V10H19V6H15V7H13V6A2,2 0 0,1 15,4Z" />
  </symbol>
  <symbol id="h4">
    <path fill="currentColor" d="M3,4H5V10H9V4H11V18H9V12H5V18H3V4M18,18V13H13V11L18,4H20V11H21V13H20V18H18M18,11V7.42L15.45,11H18Z" />
  </symbol>
  <symbol id="h5">
    <path fill="currentColor" d="M3,4H5V10H9V4H11V18H9V12H5V18H3V4M15,4H20V6H15V10H17A4,4 0 0,1 21,14A4,4 0 0,1 17,18H15A2,2 0 0,1 13,16V15H15V16H17A2,2 0 0,0 19,14A2,2 0 0,0 17,12H15A2,2 0 0,1 13,10V6A2,2 0 0,1 15,4Z" />
  </symbol>
  <symbol id="h6">
    <path fill="currentColor" d="M3,4H5V10H9V4H11V18H9V12H5V18H3V4M15,4H19A2,2 0 0,1 21,6V7H19V6H15V10H19A2,2 0 0,1 21,12V16A2,2 0 0,1 19,18H15A2,2 0 0,1 13,16V6A2,2 0 0,1 15,4M15,12V16H19V12H15Z" />
  </symbol>
  <symbol id="horizontal-rule">
    <path fill="currentColor" d="M16,12A2,2 0 0,1 18,10A2,2 0 0,1 20,12A2,2 0 0,1 18,14A2,2 0 0,1 16,12M10,12A2,2 0 0,1 12,10A2,2 0 0,1 14,12A2,2 0 0,1 12,14A2,2 0 0,1 10,12M4,12A2,2 0 0,1 6,10A2,2 0 0,1 8,12A2,2 0 0,1 6,14A2,2 0 0,1 4,12Z" />
  </symbol>
  <symbol id="italic">
    <path fill="currentColor" d="M10,4V7H12.21L8.79,15H6V18H14V15H11.79L15.21,7H18V4H10Z" />
  </symbol>
  <symbol id="link">
    <path fill="currentColor" d="M16,6H13V7.9H16C18.26,7.9 20.1,9.73 20.1,12A4.1,4.1 0 0,1 16,16.1H13V18H16A6,6 0 0,0 22,12C22,8.68 19.31,6 16,6M3.9,12C3.9,9.73 5.74,7.9 8,7.9H11V6H8A6,6 0 0,0 2,12A6,6 0 0,0 8,18H11V16.1H8C5.74,16.1 3.9,14.26 3.9,12M8,13H16V11H8V13Z" />
  </symbol>
  <symbol id="login">
    <path fill="currentColor" d="M10,17.25V14H3V10H10V6.75L15.25,12L10,17.25M8,2H17A2,2 0 0,1 19,4V20A2,2 0 0,1 17,22H8A2,2 0 0,1 6,20V16H8V20H17V4H8V8H6V4A2,2 0 0,1 8,2Z" />
  </symbol>
  <symbol id="logout">
    <path fill="currentColor" d="M17,17.25V14H10V10H17V6.75L22.25,12L17,17.25M13,2A2,2 0 0,1 15,4V8H13V4H4V20H13V16H15V20A2,2 0 0,1 13,22H4A2,2 0 0,1 2,20V4A2,2 0 0,1 4,2H13Z" />
  </symbol>
  <symbol id="menu">
    <path fill="currentColor" d="M3 18h18v-2H3v2zm0-5h18v-2H3v2zm0-7v2h18V6H3z" />
  </symbol>
  <symbol id="ordered-list">
    <path fill="currentColor" d="M7,13H21V11H7M7,19H21V17H7M7,7H21V5H7M2,11H3.8L2,13.1V14H5V13H3.2L5,10.9V10H2M3,8H4V4H2V5H3M2,17H4V17.5H3V18.5H4V19H2V20H5V16H2V17Z" />
  </symbol>
  <symbol id="projects">
    <path fill="currentColor" d="M19,18H9A2,2 0 0,1 7,16V4A2,2 0 0,1 9,2H10V7L12,5.5L14,7V2H19A2,2 0 0,1 21,4V16A2,2 0 0,1 19,18M17,20V22H5A2,2 0 0,1 3,20V6H5V20H17Z" />
  </symbol>
  <symbol id="refresh">
    <path fill="currentColor" d="M17.65,6.35C16.2,4.9 14.21,4 12,4A8,8 0 0,0 4,12A8,8 0 0,0 12,20C15.73,20 18.84,17.45 19.73,14H17.65C16.83,16.33 14.61,18 12,18A6,6 0 0,1 6,12A6,6 0 0,1 12,6C13.66,6 15.14,6.69 16.22,7.78L13,11H20V4L17.65,6.35Z" />
  </symbol>
  <symbol id="strike-through">
    <path fill="currentColor" d="M23,12V14H18.61C19.61,16.14 19.56,22 12.38,22C4.05,22.05 4.37,15.5 4.37,15.5L8.34,15.55C8.37,18.92 11.5,18.92 12.12,18.88C12.76,18.83 15.15,18.84 15.34,16.5C15.42,15.41 14.32,14.58 13.12,14H1V12H23M19.41,7.89L15.43,7.86C15.43,7.86 15.6,5.09 12.15,5.08C8.7,5.06 9,7.28 9,7.56C9.04,7.84 9.34,9.22 12,9.88H5.71C5.71,9.88 2.22,3.15 10.74,2C19.45,0.8 19.43,7.91 19.41,7.89Z" />
  </symbol>
  <symbol id="text-color">
    <path fill="currentColor" d="M9.62,12L12,5.67L14.37,12M11,3L5.5,17H7.75L8.87,14H15.12L16.25,17H18.5L13,3H11Z" />
  </symbol>
  <symbol id="underline">
    <path fill="currentColor" d="M5,21H19V19H5V21M12,17A6,6 0 0,0 18,11V3H15.5V11A3.5,3.5 0 0,1 12,14.5A3.5,3.5 0 0,1 8.5,11V3H6V11A6,6 0 0,0 12,17Z" />
  </symbol>
  <symbol id="unordered-list">
    <path fill="currentColor" d="M7,5H21V7H7V5M7,13V11H21V13H7M4,4.5A1.5,1.5 0 0,1 5.5,6A1.5,1.5 0 0,1 4,7.5A1.5,1.5 0 0,1 2.5,6A1.5,1.5 0 0,1 4,4.5M4,10.5A1.5,1.5 0 0,1 5.5,12A1.5,1.5 0 0,1 4,13.5A1.5,1.5 0 0,1 2.5,12A1.5,1.5 0 0,1 4,10.5M7,19V17H21V19H7M4,16.5A1.5,1.5 0 0,1 5.5,18A1.5,1.5 0 0,1 4,19.5A1.5,1.5 0 0,1 2.5,18A1.5,1.5 0 0,1 4,16.5Z" />
  </symbol>
  <symbol id="view">
    <path fill="currentColor" d="M14,3V5H17.59L7.76,14.83L9.17,16.24L19,6.41V10H21V3M19,19H5V5H12V3H5C3.89,3 3,3.9 3,5V19A2,2 0 0,0 5,21H19A2,2 0 0,0 21,19V12H19V19Z" />
  </symbol>
</svg>
