<svg
    xmlns="http://www.w3.org/2000/svg"
    xmlns:svg="http://www.w3.org/2000/svg"
    xmlns:xlink="http://www.w3.org/1999/xlink"
    viewBox="0 0 1200 1200"
    preserveAspectRatio="xMidYMid meet"
    version="1.1"
>
  <symbol id="logo">
    <path fill="#42BC98" d="M1153.561 600c0-305.727-247.842-553.56-553.56-553.56C294.276 46.44 46.439 294.274 46.439 600c0 305.724 247.836 553.56 553.561 553.56 305.719 0 553.561-247.836 553.561-553.56z"/>
    <defs>
      <path id="a" d="M1153.561 600c0-305.727-247.842-553.56-553.56-553.56C294.276 46.44 46.439 294.274 46.439 600c0 305.724 247.836 553.56 553.561 553.56 305.719 0 553.561-247.836 553.561-553.56z"/>
    </defs>
    <clipPath id="b">
      <use xlink:href="#a" overflow="visible"/>
    </clipPath>
    <linearGradient id="c" x1="753.0826" x2="1157.4877" y1="578.5367" y2="1283.1187" gradientUnits="userSpaceOnUse">
      <stop offset="0"/>
      <stop offset=".0849" stop-color="#1F1F1F" stop-opacity=".9151"/>
      <stop offset=".2232" stop-color="#464647" stop-opacity=".7768"/>
      <stop offset=".3978" stop-color="#656668" stop-opacity=".6022"/>
      <stop offset=".6017" stop-color="#8A8A8C" stop-opacity=".3983"/>
      <stop offset=".8275" stop-color="#B8B7B8" stop-opacity=".1725"/>
      <stop offset="1" stop-color="#DDDBDB" stop-opacity="0"/>
    </linearGradient>
    <path fill="url(#c)" fill-rule="evenodd" d="M704.967 366.937l159.964 13.527 52.005-44.615L1435.8 854.728s-27.684 401.724-364.32 439.123c-336.63 37.405-254.243-46.412-254.243-46.412l-46.514-41.7-237.364-187.649-1.608-24.056-51.318-44.905-19.247-62.55-16.041-19.246-17.643-43.303-125.923-118.849 124.32-173.048-145.455-145.46 291.404-35.776 133.119 16.04z" opacity=".5" clip-path="url(#b)" clip-rule="evenodd"/>
    <g>
      <path fill="#D6C59E" fill-rule="evenodd" d="M400.408 508.301c12.04-5.954 149.75-106.844 139.613-139.002l4.713-1.003c-53.604-24.387-208.814-257.92-221.608-60.646-3.827 58.891 26.59 165.419 76.539 198.773l.743 1.878z" clip-rule="evenodd"/>
      <path fill="#C0AE7E" fill-rule="evenodd" d="M416.922 508.301c10.305-5.104 128.294-91.542 119.613-119.094l4.036-.855c-45.918-20.9-178.885-220.964-189.862-51.944-3.267 50.448 22.784 141.694 65.572 170.29l.641 1.603z" clip-rule="evenodd"/>
      <defs>
        <path id="d" d="M341.64 235.867c73.608 34.661 118.137 138.536 120.86 217.411.066 1.893 110.188-66.29 71.501-99.415-11.73-10.056-162.02-189.923-189.73-123.503-1.303 3.132 3.608 3.473-2.631 5.507z"/>
      </defs>
      <use fill="#616065" fill-rule="evenodd" xlink:href="#d" overflow="visible" clip-rule="evenodd"/>
      <clipPath id="e">
        <use xlink:href="#d" overflow="visible"/>
      </clipPath>
      <g clip-path="url(#e)">
        <path fill="#4D4B52" fill-rule="evenodd" d="M439.217 241.042c47.613 105.244-41.272 50.654-54.101 31.901l65.195 159.526 90.173-109.597-101.267-81.83z" clip-rule="evenodd"/>
      </g>
      <path fill="#F26A44" fill-rule="evenodd" d="M449.003 392.688c-50.122-6.895-95.811 24.188-102.03 69.42-6.218 45.226 29.374 87.491 79.512 94.386 50.147 6.896 95.826-24.188 102.035-69.409 6.223-45.252-29.38-87.491-79.517-94.397z" clip-rule="evenodd"/>
      <path fill="#FBC1AE" fill-rule="evenodd" d="M695.247 323.706c6.29 50.59 128.559 101.654 179.938 174.147 38.824 54.784 73.857 82.076 68.707 154.152-1.47 20.585-55.221-80.346-16.534 14.519 16.835 41.241-31.15 131.47-32.148 65.659-.707-46.234-21.633-17.435-30.478 4.036-22.606 54.799-3.216-50.127-63.119-73.959-58.346-23.18-14.02-41.231-137.786-50.224-148.519-10.778-57.791-208.32-136.396-75.038-17.201 29.155-154.147 88.127-135.766 166.361.071.331-45.282-17.608-45.282-72.223 0-108.096 257.159-313.785 207.215-359.787 3.166-6.127 46.366 12.705 41.893 38.102 0-22.035 12.478-.57-2.015-53.252-3.552-12.88 57.99-9.274 54.916 62.644-.672 15.567 32.977-35.03 35.175-36.75 11.522 6.733 11.084 36.814 11.68 41.613z" clip-rule="evenodd"/>
      <path fill="#F26A44" fill-rule="evenodd" d="M675.822 323.706c6.285 50.59 128.564 101.654 179.949 174.147 38.809 54.784 73.852 82.076 68.702 154.152-1.471 20.585-55.216-80.346-16.535 14.519 16.82 41.241-31.145 131.47-32.152 65.659-.687-46.234-21.623-17.435-30.483 4.036-22.595 54.799-3.216-50.127-63.114-73.959-58.346-23.18-14.021-41.231-137.781-50.224-148.524-10.778-57.781-208.32-136.396-75.038-17.191 29.155-154.157 88.127-135.77 166.361.081.331-45.288-17.608-45.288-72.223 0-108.096 257.18-313.785 207.226-359.787 3.175-6.127 46.371 12.705 41.878 38.102 0-22.035 12.494-.57-2.01-53.252-3.537-12.88 58.01-9.274 54.936 62.644-.677 15.567 32.972-35.03 35.165-36.75 11.515 6.733 11.072 36.814 11.673 41.613z" clip-rule="evenodd"/>
      <path fill="#FFF" fill-rule="evenodd" d="M446.81 401.512c-50.137-6.895-95.811 24.183-102.045 69.414-6.214 45.237 29.394 87.486 79.522 94.377 50.132 6.901 95.806-24.178 102.03-69.415 6.223-45.221-29.38-87.48-79.507-94.376z" clip-rule="evenodd"/>
      <path fill="#0C050D" fill-rule="evenodd" d="M443.293 456.743c-28.127.581-50.463 23.847-49.873 51.985.581 28.127 23.847 50.437 51.98 49.863 28.112-.581 50.448-23.837 49.863-51.97-.58-28.132-23.853-50.452-51.97-49.878z" clip-rule="evenodd"/>
      <path fill="#FFF" fill-rule="evenodd" d="M467.72 483.064c-.946-6.397-6.885-10.809-13.287-9.863-6.392.957-10.794 6.911-9.852 13.308.947 6.387 6.896 10.779 13.293 9.853 6.391-.967 10.799-6.911 9.846-13.298z" clip-rule="evenodd"/>
      <path fill="#D2AA7F" fill-rule="evenodd" d="M541.501 494.163c18.743 97.699-130.778 98.295-174.477 47.587 26.336 6.072 128.961 3.675 174.477-47.587z" clip-rule="evenodd"/>
      <path fill="#39353C" fill-rule="evenodd" d="M409.319 320.999c-23.684 1.292-113.369 32.931-127.582 57.557-19.512 33.801 127.903-20.794 136.376-25.216 28.631-15.008-5.736-32.566-8.794-32.341z" clip-rule="evenodd"/>
      <path fill="#AF9F73" fill-rule="evenodd" d="M448.311 570.357c-87.618 19.756-161.943 116.346-143.271 132.824 4.967 4.376 15.348-10.458 34.89-20.311 68.478-34.489 65.705 22.834 81.084-79.598.794-5.226 18.223-26.107 23.547-30.295l3.75-2.62z" clip-rule="evenodd"/>
      <path fill="#AF9F73" fill-rule="evenodd" d="M414.261 594.188c-53.791-19.669-126.977 6.458-122.651 21.735 1.14 4.066 11.832-.31 25.71 1.161 48.616 5.155 27.344 34.911 70.941-14.672 2.234-2.54 18.784-7.71 23.079-8.112l2.921-.112z" clip-rule="evenodd"/>
      <path fill="#FBFBFB" fill-rule="evenodd" stroke="#E9DBC1" stroke-width=".318" stroke-miterlimit="22.9256" d="M508.107 674.6l261.099-3.359c66.331 41.104 44.794 123.053-36.682 169.49-72.901 41.537-125.099 130.804-107.399 213.348-68.677 28.433-47.812-147.19-82.152-36.529-32.015 0-40.224-116.936-46.865-91.903-16.865 63.506-37.903-27.506-26.351-81.44-12.641 14.743-19.237 22.275-22.509 22.931-11.089 2.264-18.265-55.618 18.092-123.852 13.343-25.088 32.686-50.365 42.767-68.686z" clip-rule="evenodd"/>
      <path fill="#D6C59E" fill-rule="evenodd" d="M840.35 490.657c-12.036-5.954-149.755-106.849-139.618-139.007l-4.722-1.002c53.613-24.382 208.818-257.905 221.623-60.626 3.817 58.88-26.611 165.404-76.544 198.778l-.739 1.857z" clip-rule="evenodd"/>
      <path fill="#B7A577" fill-rule="evenodd" d="M815.236 473.588c-9.481-4.692-118.03-84.224-110.04-109.582l-3.715-.784c42.249-19.216 164.585-203.282 174.671-47.781 3.018 46.407-20.957 130.356-60.315 156.656l-.601 1.491z" clip-rule="evenodd"/>
      <path fill="#616065" fill-rule="evenodd" d="M894.961 218.225c-73.628 34.662-118.142 138.544-120.88 217.424-.051 1.898-110.188-66.31-71.491-99.435 11.73-10.046 162.02-189.908 189.745-123.478 1.292 3.113-3.618 3.459 2.626 5.489z" clip-rule="evenodd"/>
      <defs>
        <path id="f" d="M495.624 659.344l261.088-3.359c66.341 41.104 44.804 123.058-36.666 169.475-72.906 41.532-125.099 130.804-107.404 213.368-68.677 28.412-47.817-147.205-82.152-36.529-32.01 0-40.219-116.951-46.87-91.918-16.86 63.516-37.903-27.491-26.346-81.44-12.641 14.758-19.242 22.269-22.504 22.931-11.099 2.275-18.265-55.598 18.076-123.847 13.353-25.074 32.701-50.361 42.778-68.681z"/>
      </defs>
      <use fill="#D2C29E" fill-rule="evenodd" xlink:href="#f" overflow="visible" clip-rule="evenodd"/>
      <clipPath id="g">
        <use xlink:href="#f" overflow="visible"/>
      </clipPath>
      <g clip-path="url(#g)">
        <path fill="#B9A982" fill-rule="evenodd" d="M810.6 718.234l-1.374 56.875c-36.799-79.012-285.205-49.532-350.971 13.323-18.478 17.659-39.277 55.761-45.771 81.003l22.188-183.099 337.088-24.967 38.84 56.865z" clip-rule="evenodd"/>
      </g>
      <use fill="none" fill-rule="evenodd" stroke="#E9DBC1" stroke-width=".318" stroke-miterlimit="22.9256" xlink:href="#f" overflow="visible" clip-rule="evenodd"/>
      <path fill="#FBFBFB" fill-rule="evenodd" d="M570.972 717.883c22.763 36.493-146.758 81.862-124.605 10.463 21.267-68.524 58.946-15.44 119.236-10.529 3.98.34.433.066 5.369.066z" clip-rule="evenodd"/>
      <path fill="#FBFBFB" fill-rule="evenodd" d="M401.451 625.298c-38.799 55.155-20.758 154.253 66.321 129.801 109.99-30.875 291.618-30.072 382.299 66.595.453.488 17.654-90.677-17.684-153.389 10.768.244 55.796 26.091 58.244 21.069 15.822-32.555-25.933-68.488-81.913-90.885 4.366-3.257 3.741 4.178 14.005 1.125 11.903-3.526 23.344-9.766 23.679-13.496 1.227-13.17-59.872-15.288-103.47 4.682-6.122-3.348-12.565-6.61-19.364-9.694-134.849-61.267-97.073-154.157-177.149-105.878-21.07 12.681-135.858 125.454-144.968 150.07zm352.518-28.061c-.336-.204-.651-.427-.987-.631 1.465.311 2.784.631 3.756.952-.922-.108-1.843-.23-2.769-.321z" clip-rule="evenodd"/>
      <path fill="#E9DBC1" fill-rule="evenodd" d="M549.486 708.885c22.743 36.463-146.778 69.379-121.842 21.557 33.176-63.628 56.158-26.565 116.463-21.628 3.974.326.433.071 5.379.071z" clip-rule="evenodd"/>
      <path fill="#E9DBC1" fill-rule="evenodd" d="M387.583 605.898c-38.804 55.145-20.768 154.228 66.326 129.791 109.974-30.875 294.38-30.076 383.678 41.619.799.621 27.583-144.972-127.893-215.612-134.859-61.292-97.073-154.158-177.154-105.893-21.048 12.696-135.852 125.444-144.957 150.095z" clip-rule="evenodd"/>
      <path fill="#FDF1E1" fill-rule="evenodd" d="M396.744 617.868c-34.921 40.875-18.692 114.289 59.679 96.188 98.967-22.875 264.879-35.659 345.246 17.476.707.463 24.819-94.056-115.084-146.406-121.343-45.415-87.349-114.249-159.409-78.473-18.952 9.404-122.254 92.96-130.432 111.215z" clip-rule="evenodd"/>
      <path fill="#A08F65" fill-rule="evenodd" d="M440.438 643.14c-3.959 52.565 70.748 56.056 105.827 55.847 51.079-.29 164.3-30.458 164.3-97.445l17.639 10.407c0 73.517-128.005 100.203-183.826 100.504-40.641.239-116.407-10.336-111.928-69.985l7.988.672z" clip-rule="evenodd"/>
      <path fill="#D2AA7F" fill-rule="evenodd" d="M648.641 374.271c61.618-8.473 117.76 29.735 125.404 85.323 7.638 55.577-36.107 107.526-97.72 115.989-61.618 8.473-117.771-29.72-125.409-85.313-7.638-55.597 36.112-107.521 97.725-115.999z" clip-rule="evenodd"/>
      <path fill="#FFF" fill-rule="evenodd" d="M656.906 388.031c53.984-7.415 103.18 26.045 109.882 74.753 6.692 48.717-31.633 94.224-85.633 101.638-53.995 7.42-103.176-26.041-109.878-74.758-6.696-48.711 31.634-94.213 85.629-101.633z" clip-rule="evenodd"/>
      <path fill="#0C050D" fill-rule="evenodd" d="M685.735 452.479c30.29.626 54.335 25.694 53.704 55.974-.631 30.29-25.694 54.346-55.979 53.704-30.285-.61-54.316-25.679-53.695-55.979.627-30.279 25.68-54.325 55.97-53.699z" clip-rule="evenodd"/>
      <path fill="#FFF" fill-rule="evenodd" d="M659.42 480.815c1.033-6.87 7.43-11.629 14.305-10.601 6.88 1.018 11.639 7.414 10.616 14.305-1.023 6.875-7.43 11.633-14.305 10.621-6.881-1.028-11.624-7.435-10.616-14.325z" clip-rule="evenodd"/>
      <path fill="#D2AA7F" fill-rule="evenodd" d="M548.682 493.553c-19.364 87.872 159.877 144.844 196.02 51.44-27.166 5.46-149.017-5.344-196.02-51.44z" clip-rule="evenodd"/>
      <path fill="#39353C" fill-rule="evenodd" d="M664.773 281.826c22.412 1.229 107.298 31.173 120.748 54.476 18.468 31.995-121.048-19.669-129.068-23.883-27.089-14.194 5.43-30.81 8.32-30.593z" clip-rule="evenodd"/>
      <path fill="#CBBAA3" fill-rule="evenodd" d="M543.278 608.163c3.771 0 6.844-2.927 6.844-6.524 0-3.593-3.074-6.519-6.844-6.519-3.771 0-6.85 2.927-6.85 6.519 0 3.597 3.078 6.524 6.85 6.524zM555.227 653.786c3.817 0 6.926-2.952 6.926-6.596 0-3.629-3.109-6.585-6.926-6.585s-6.926 2.956-6.926 6.585c-.001 3.644 3.109 6.596 6.926 6.596zM611.644 646.855c3.812 0 6.921-2.972 6.921-6.611 0-3.618-3.109-6.57-6.921-6.57-3.817 0-6.926 2.952-6.926 6.57 0 3.639 3.109 6.611 6.926 6.611zM590.646 611.649c3.954 0 7.196-3.074 7.196-6.865 0-3.771-3.242-6.84-7.196-6.84-3.959 0-7.196 3.069-7.196 6.84.001 3.791 3.237 6.865 7.196 6.865zM574.82 631.802c3.807 0 6.921-2.946 6.921-6.58 0-3.623-3.114-6.595-6.921-6.595-3.822 0-6.921 2.972-6.921 6.595 0 3.633 3.099 6.58 6.921 6.58z" clip-rule="evenodd"/>
      <path fill="#A08F65" fill-rule="evenodd" d="M433.639 654.763c-11.16 17.913 28.87 68.259-30.564 78.325-3.262.55 24.605 20.356 44.239-24.783 9.156-21.104 59.603 1.165 45.292-4.234-6.631-2.504-47.124-26.55-58.967-49.308z" clip-rule="evenodd"/>
      <path fill="#4D4B52" fill-rule="evenodd" d="M444.657 707.491c15.16-29.074 24.122-3.287 51.658-1.038 5.349.427-3.552 12.814-16.967 17.257-14.565 4.835-34.092 1.486-36.748-6.209-.798-2.295-.264-5.567 2.057-10.01z" clip-rule="evenodd"/>
      <path fill="#E9DBC1" fill-rule="evenodd" d="M729.939 577.038c79.811 3.053 160.483 75.481 146.814 92.916-3.624 4.621-15.11-6.672-33.802-12.117-65.475-19.038-53.745 30.636-83.806-56.443-1.537-4.443-20.162-19.868-25.501-22.667l-3.705-1.689z" clip-rule="evenodd"/>
      <path fill="#A08F65" fill-rule="evenodd" d="M767.969 604.708c-6.957 35.98-85.822 19.878-85.135-21.583 10.769 7.598 56.84 28.667 85.135 21.583z" clip-rule="evenodd"/>
      <path fill="#E9DBC1" fill-rule="evenodd" d="M720.381 575.903c43.832-25.924 112.066-14.951 110.773-.875-.346 3.71-10.402 1.623-22.305 5.16-41.674 12.387-18.239 34.972-64.407-1.298-2.361-1.868-17.679-3.71-21.506-3.379l-2.555.392z" clip-rule="evenodd"/>
      <path fill="#AF9F73" fill-rule="evenodd" d="M457.36 571.42c-50.331-27.308-126.555-12.173-124.504 3.583.539 4.168 11.755 1.41 25.277 4.891 47.329 12.208 21.929 38.565 72.31-4.138 2.57-2.199 19.705-4.88 24.026-4.677l2.891.341z" clip-rule="evenodd"/>
      <path fill="#39353C" fill-rule="evenodd" d="M478.545 626.86c-31.089 61.71-146.951 21.521-133.684-25.903 17.395-62.138 167.872-41.965 133.684 25.903z" clip-rule="evenodd"/>
      <path fill="#616065" fill-rule="evenodd" d="M443.329 613.766c-20.539 40.779-97.119 14.203-88.351-17.135 11.486-41.058 110.936-27.73 88.351 17.135z" clip-rule="evenodd"/>
    </g>
  </symbol>
</svg>
